HIERARCHY
ROOT Pelvis
{
	OFFSET 0.000000 0.000000 0.000000
	CHANNELS 6 Xposition Yposition Zposition Xrotation Yrotation Zrotation
	JOINT LeftUpLeg_virtual
	{
		OFFSET 0.000000 0.000000 0.000000
		CHANNELS 3 Xrotation Yrotation Zrotation
		JOINT LeftUpLeg
		{
			OFFSET 18.735201 -5.666702 -4.541200
			CHANNELS 3 Xrotation Yrotation Zrotation
			JOINT LeftLeg
			{
				OFFSET -0.021200 -31.938179 0.493100
				CHANNELS 3 Xrotation Yrotation Zrotation
				JOINT LeftFoot
				{
					OFFSET 0.021200 -31.938179 -4.336299
					CHANNELS 3 Xrotation Yrotation Zrotation
					JOINT LeftToeBase
					{
						OFFSET 0.943001 -26.722000 15.023500
						CHANNELS 3 Xrotation Yrotation Zrotation
						End Site
						{
							OFFSET 0 0 0
						}
					}
				}
			}
		}
	}
	JOINT RightUpLeg_virtual
	{
		OFFSET 0.000000 0.000000 0.000000
		CHANNELS 3 Xrotation Yrotation Zrotation
		JOINT RightUpLeg
		{
			OFFSET -18.735201 -5.666702 -4.541200
			CHANNELS 3 Xrotation Yrotation Zrotation
			JOINT RightLeg
			{
				OFFSET 0.018946 -31.938133 0.493100
				CHANNELS 3 Xrotation Yrotation Zrotation
				JOINT RightFoot
				{
					OFFSET -0.018946 -31.938126 -4.336299
					CHANNELS 3 Xrotation Yrotation Zrotation
					JOINT RightToeBase
					{
						OFFSET -0.943001 -26.722004 15.023500
						CHANNELS 3 Xrotation Yrotation Zrotation
						End Site
						{
							OFFSET 0 0 0
						}
					}
				}
			}
		}
	}
	JOINT Hips_virtual
	{
		OFFSET 0.000000 0.000000 0.000000
		CHANNELS 3 Xrotation Yrotation Zrotation
		JOINT Hips
		{
			OFFSET -0.000000 -0.000000 -0.000000
			CHANNELS 3 Xrotation Yrotation Zrotation
			JOINT Spine
			{
				OFFSET 0.000000 10.199997 -0.299500
				CHANNELS 3 Xrotation Yrotation Zrotation
				JOINT Spine1
				{
					OFFSET 0.000000 11.900002 -1.516600
					CHANNELS 3 Xrotation Yrotation Zrotation
					JOINT Spine2
					{
						OFFSET 0.000000 13.600006 -2.842500
						CHANNELS 3 Xrotation Yrotation Zrotation
						JOINT Neck_virtual
						{
							OFFSET 0.000000 0.000000 0.000000
							CHANNELS 3 Xrotation Yrotation Zrotation
							JOINT Neck
							{
								OFFSET 0.000000 9.624100 -2.890100
								CHANNELS 3 Xrotation Yrotation Zrotation
								JOINT Head
								{
									OFFSET 0.000000 14.068802 -1.351900
									CHANNELS 3 Xrotation Yrotation Zrotation
									End Site
									{
										OFFSET 0 0 0
									}
								}
							}
						}
						JOINT LeftShoulder_virtual
						{
							OFFSET 0.000000 0.000000 0.000000
							CHANNELS 3 Xrotation Yrotation Zrotation
							JOINT LeftShoulder
							{
								OFFSET 15.263000 10.923401 -0.547700
								CHANNELS 3 Xrotation Yrotation Zrotation
								JOINT LeftArm
								{
									OFFSET 25.438599 -2.830597 -13.032500
									CHANNELS 3 Xrotation Yrotation Zrotation
									JOINT LeftForeArm
									{
										OFFSET 29.960503 0.000000 0.000000
										CHANNELS 3 Xrotation Yrotation Zrotation
										JOINT LeftHand
										{
											OFFSET 27.849251 0.000000 0.000000
											CHANNELS 3 Xrotation Yrotation Zrotation
											End Site
											{
												OFFSET 0 0 0
											}
										}
									}
								}
							}
						}
						JOINT RightShoulder_virtual
						{
							OFFSET 0.000000 0.000000 0.000000
							CHANNELS 3 Xrotation Yrotation Zrotation
							JOINT RightShoulder
							{
								OFFSET -15.263000 10.923401 -0.547700
								CHANNELS 3 Xrotation Yrotation Zrotation
								JOINT RightArm
								{
									OFFSET -25.438599 -2.830597 -13.032500
									CHANNELS 3 Xrotation Yrotation Zrotation
									JOINT RightForeArm
									{
										OFFSET -29.960503 0.000000 0.000000
										CHANNELS 3 Xrotation Yrotation Zrotation
										JOINT RightHand
										{
											OFFSET -27.849251 0.000000 0.000000
											CHANNELS 3 Xrotation Yrotation Zrotation
											End Site
											{
												OFFSET 0 0 0
											}
										}
									}
								}
							}
						}
					}
				}
			}
		}
	}
}
MOTION
Frames: 10
Frame Time: 0.03333333
-3.875768 84.168579 2.567417 0.000000 0.000000 0.000000 12.300213 -55.785608 11.083051 -47.997215 3.988308 30.979747 45.772666 -11.673601 -10.703070 -5.543802 -0.940304 -5.868210 0.000000 0.000000 0.000000 12.300213 -55.785608 11.083051 -29.180866 -8.257816 -24.023718 54.682860 10.293034 -0.836227 -39.153158 -6.717669 13.593229 0.000000 0.000000 0.000000 12.300213 -55.785608 11.083051 0.000000 0.000000 0.000000 11.712291 1.277674 -2.541517 -7.573171 6.733739 -2.520091 0.000000 0.000000 0.000000 0.220138 5.397592 -4.595491 -2.049734 8.374130 4.218930 0.000000 0.000000 0.000000 0.220138 5.397592 -4.595491 -31.809707 13.410715 5.488766 38.429523 -24.730783 -35.179183 -0.000009 -63.060862 -0.000023 0.000000 0.000000 0.000000 0.220138 5.397592 -4.595491 0.882302 7.689506 10.202004 7.550373 1.963482 57.853738 0.000004 75.685196 -0.000017 0.000000 0.000000 0.000000 
-3.902892 84.177483 2.561319 0.000000 0.000000 0.000000 12.254725 -55.784658 11.024970 -47.951244 3.975851 31.025806 45.753013 -11.626770 -10.715047 -5.539413 -1.008975 -5.888727 0.000000 0.000000 0.000000 12.254725 -55.784658 11.024970 -29.108951 -8.295941 -23.982150 54.643716 10.289454 -0.836621 -39.163246 -6.717322 13.573690 0.000000 0.000000 0.000000 12.254725 -55.784658 11.024970 0.000000 -0.000001 0.000000 11.712319 1.277495 -2.542610 -7.573170 6.733731 -2.520088 0.000000 0.000000 0.000000 0.220137 5.397612 -4.595493 -2.022526 8.397350 4.199389 0.000000 0.000000 0.000000 0.220137 5.397612 -4.595493 -31.777810 12.952632 5.310873 38.682906 -24.912973 -34.934556 -0.000018 -62.511653 0.000004 0.000000 0.000000 0.000000 0.220137 5.397612 -4.595493 1.018006 7.684534 10.077998 7.270300 2.953155 57.421079 -0.000039 75.186176 0.000037 0.000000 0.000000 0.000000 
-3.935806 84.175049 2.560680 0.000000 0.000000 0.000000 12.216259 -55.729224 10.974143 -47.954919 3.957681 31.056132 45.741688 -11.581294 -10.725572 -5.514056 -1.120580 -5.900701 0.000000 0.000000 0.000000 12.216259 -55.729224 10.974143 -29.021347 -8.338559 -23.941010 54.630530 10.287005 -0.836648 -39.218878 -6.767745 13.538933 0.000000 0.000000 0.000000 12.216259 -55.729224 10.974143 0.000000 -0.000001 0.000000 11.712344 1.277102 -2.543433 -7.573166 6.733733 -2.520089 0.000000 0.000000 0.000000 0.220137 5.397587 -4.595493 -2.004550 8.431874 4.182247 0.000000 0.000000 0.000000 0.220137 5.397587 -4.595493 -31.754075 12.465672 5.128832 39.012302 -25.126441 -34.726984 0.000013 -61.838798 -0.000002 0.000000 0.000000 0.000000 0.220137 5.397587 -4.595493 1.163716 7.679720 9.947279 6.979124 3.931134 56.951750 -0.000105 74.671767 0.000132 0.000000 0.000000 0.000000 
-3.966494 84.181175 2.559702 0.000000 0.000000 0.000000 12.183254 -55.711326 10.922663 -47.929418 3.941565 31.101051 45.728612 -11.535175 -10.737556 -5.508017 -1.203443 -5.917296 0.000000 0.000000 0.000000 12.183254 -55.711326 10.922663 -28.942503 -8.382422 -23.895565 54.587487 10.283246 -0.836996 -39.238931 -6.782301 13.516809 0.000000 0.000000 0.000000 12.183254 -55.711326 10.922663 0.000000 0.000000 0.000000 11.712353 1.276768 -2.544749 -7.573166 6.733740 -2.520090 0.000000 0.000000 0.000000 0.220140 5.397586 -4.595490 -1.994446 8.477449 4.163861 0.000000 0.000000 0.000000 0.220140 5.397586 -4.595490 -31.738352 11.953794 4.944354 39.461589 -25.312638 -34.536862 -0.000037 -61.081023 -0.000032 0.000000 0.000000 0.000000 0.220140 5.397586 -4.595490 1.316083 7.674896 9.811790 6.684434 4.902612 56.464300 0.000073 74.142947 -0.000081 0.000000 0.000000 0.000000 
-4.006382 84.178200 2.562649 0.000000 0.000000 0.000000 12.159387 -55.646927 10.879674 -47.941320 3.919099 31.134178 45.720911 -11.487133 -10.748224 -5.487920 -1.324301 -5.930600 0.000000 0.000000 0.000000 12.159387 -55.646927 10.879674 -28.847659 -8.432979 -23.847636 54.563892 10.280107 -0.837054 -39.300048 -6.839246 13.479850 0.000000 0.000000 0.000000 12.159387 -55.646927 10.879674 0.000001 0.000002 -0.000000 11.712392 1.276263 -2.545865 -7.573169 6.733739 -2.520092 0.000000 0.000000 0.000000 0.220137 5.397609 -4.595491 -1.991143 8.532462 4.144021 0.000000 0.000000 0.000000 0.220137 5.397609 -4.595491 -31.730422 11.421056 4.759069 39.967012 -25.538414 -34.374259 0.000012 -60.212380 0.000027 0.000000 0.000000 0.000000 0.220137 5.397609 -4.595491 1.475929 7.670216 9.670639 6.392932 5.865453 55.957319 -0.000005 73.593547 -0.000006 0.000000 0.000000 0.000000 
-4.040545 84.186043 2.557804 0.000000 0.000000 0.000000 12.119964 -55.650366 10.821795 -47.889987 3.895600 31.187190 45.716379 -11.446069 -10.760826 -5.504390 -1.381227 -5.955910 0.000000 0.000000 0.000000 12.119964 -55.650366 10.821795 -28.772971 -8.478128 -23.800143 54.520783 10.275731 -0.837524 -39.312909 -6.829913 13.460496 0.000000 0.000000 0.000000 12.119964 -55.650366 10.821795 0.000000 0.000000 0.000000 11.712424 1.276020 -2.547363 -7.573171 6.733743 -2.520093 0.000000 0.000000 0.000000 0.220139 5.397587 -4.595491 -1.993276 8.595137 4.122694 0.000000 0.000000 0.000000 0.220139 5.397587 -4.595491 -31.729941 10.871505 4.574487 40.571368 -25.747296 -34.219842 0.000020 -59.253879 0.000017 0.000000 0.000000 0.000000 0.220139 5.397587 -4.595491 1.643108 7.665856 9.523405 6.114630 6.818354 55.434433 0.000061 73.016717 -0.000067 0.000000 0.000000 0.000000 
-4.085599 84.182571 2.562881 0.000000 0.000000 0.000000 12.097085 -55.599949 10.786295 -47.888010 3.886881 31.224729 45.717000 -11.395100 -10.771263 -5.503353 -1.503353 -5.970191 0.000000 0.000000 0.000000 12.097085 -55.599949 10.786295 -28.682908 -8.524082 -23.761998 54.502406 10.272900 -0.837583 -39.375808 -6.871839 13.429275 0.000000 0.000000 0.000000 12.097085 -55.599949 10.786295 0.000000 0.000000 0.000000 11.712445 1.275742 -2.548412 -7.573168 6.733740 -2.520091 0.000000 0.000000 0.000000 0.220136 5.397595 -4.595493 -1.999501 8.663397 4.100119 0.000000 0.000000 0.000000 0.220136 5.397595 -4.595493 -31.736498 10.309249 4.391988 41.206664 -26.015176 -34.093716 0.000004 -58.194031 -0.000002 0.000000 0.000000 0.000000 0.220136 5.397595 -4.595493 1.816776 7.661907 9.370136 5.862042 7.760586 54.903362 -0.000078 72.405381 0.000078 0.000000 0.000000 0.000000 
-4.135063 84.187881 2.573240 0.000000 0.000000 0.000000 12.034037 -55.563678 10.714943 -47.839823 3.879913 31.262647 45.711410 -11.351414 -10.782819 -5.517975 -1.606134 -5.983942 0.000000 0.000000 0.000000 12.034037 -55.563678 10.714943 -28.553341 -8.581618 -23.723537 54.451641 10.269371 -0.837849 -39.424781 -6.901035 13.406216 0.000000 0.000000 0.000000 12.034037 -55.563678 10.714943 0.000000 0.000001 0.000000 11.712485 1.275369 -2.549981 -7.573169 6.733739 -2.520090 0.000000 0.000000 0.000000 0.220136 5.397599 -4.595490 -2.008937 8.735159 4.076626 0.000000 0.000000 0.000000 0.220136 5.397599 -4.595490 -31.749561 9.738397 4.212835 41.888348 -26.318683 -33.990153 -0.000011 -57.037701 0.000000 0.000000 0.000000 0.000000 0.220136 5.397599 -4.595490 1.995595 7.658466 9.211160 5.648671 8.691558 54.373872 -0.000047 71.752633 0.000049 0.000000 0.000000 0.000000 
-4.190835 84.173790 2.586103 0.000000 0.000000 0.000000 11.974178 -55.515620 10.648617 -47.829329 3.857386 31.307757 45.764979 -11.308213 -10.792277 -5.555249 -1.729600 -5.999236 0.000000 0.000000 0.000000 11.974178 -55.515620 10.648617 -28.441070 -8.629706 -23.691353 54.463358 10.265423 -0.837950 -39.519700 -6.936897 13.374549 0.000000 0.000000 0.000000 11.974178 -55.515620 10.648617 0.000000 0.000000 0.000000 11.712515 1.275036 -2.551412 -7.573169 6.733727 -2.520089 0.000000 0.000000 0.000000 0.220134 5.397600 -4.595490 -2.021191 8.808504 4.052277 0.000000 0.000000 0.000000 0.220134 5.397600 -4.595490 -31.768429 9.163167 4.038138 42.599996 -26.639881 -33.886256 -0.000036 -55.860371 -0.000055 0.000000 0.000000 0.000000 0.220134 5.397600 -4.595490 2.178118 7.655629 9.046889 5.487199 9.610657 53.855475 0.000047 71.052545 -0.000072 0.000000 0.000000 0.000000 
-4.247018 84.164780 2.592710 0.000000 0.000000 0.000000 11.924219 -55.509507 10.588348 -47.785615 3.835421 31.367767 45.818856 -11.265280 -10.802916 -5.615265 -1.817320 -6.026658 0.000000 0.000000 0.000000 11.924219 -55.509507 10.588348 -28.346631 -8.672470 -23.661655 54.459199 10.264489 -0.837533 -39.584829 -6.935051 13.361085 0.000000 0.000000 0.000000 11.924219 -55.509507 10.588348 0.000001 0.000001 -0.000000 11.712537 1.274823 -2.553043 -7.573170 6.733729 -2.520090 0.000000 0.000000 0.000000 0.220137 5.397603 -4.595493 -2.035985 8.881938 4.026405 0.000000 0.000000 0.000000 0.220137 5.397603 -4.595493 -31.792403 8.587722 3.868883 43.344527 -26.974830 -33.784725 -0.000015 -54.622597 -0.000017 0.000000 0.000000 0.000000 0.220137 5.397603 -4.595493 2.362985 7.653387 8.877730 5.387280 10.517458 53.355382 -0.000003 70.301136 -0.000001 0.000000 0.000000 0.000000 
